<svg width="44" height="44" viewBox="0 0 44 44" fill="none" xmlns="http://www.w3.org/2000/svg">
<rect opacity="0.3" width="44" height="44" rx="22" fill="black"/>
<path d="M15.0641 30.4999C14.6343 30.4999 14.2662 30.3467 13.9597 30.0402C13.6532 29.7337 13.5 29.3656 13.5 28.9358V16.9422C13.5 16.5124 13.6532 16.1443 13.9597 15.8379C14.2662 15.5314 14.6343 15.3782 15.0641 15.3782H17.6218C17.6218 14.1611 18.0376 13.1271 18.8692 12.2763C19.7008 11.4254 20.7241 11 21.9391 11C23.154 11 24.1976 11.4259 25.0698 12.2778C25.942 13.1297 26.3781 14.1632 26.3781 15.3782H28.9358C29.3656 15.3782 29.7338 15.5314 30.0402 15.8379C30.3467 16.1443 30.5 16.5124 30.5 16.9422V28.9358C30.5 29.3656 30.3467 29.7337 30.0402 30.0402C29.7338 30.3467 29.3656 30.4999 28.9358 30.4999H15.0641ZM15.0641 29.2435H28.9358C29.0128 29.2435 29.0833 29.2115 29.1474 29.1474C29.2115 29.0833 29.2436 29.0127 29.2436 28.9358V16.9422C29.2436 16.8653 29.2115 16.7948 29.1474 16.7307C29.0833 16.6666 29.0128 16.6346 28.9358 16.6346H15.0641C14.9872 16.6346 14.9166 16.6666 14.8525 16.7307C14.7884 16.7948 14.7564 16.8653 14.7564 16.9422V28.9358C14.7564 29.0127 14.7884 29.0833 14.8525 29.1474C14.9166 29.2115 14.9872 29.2435 15.0641 29.2435ZM22 22.1345C23.2171 22.1345 24.2617 21.6984 25.1339 20.8262C26.0061 19.954 26.4422 18.9093 26.4422 17.6922H25.1859C25.1859 18.5683 24.8726 19.3183 24.246 19.9422C23.6194 20.5662 22.8705 20.8781 21.9992 20.8781C21.1279 20.8781 20.3803 20.5662 19.7564 19.9422C19.1324 19.3183 18.8205 18.5683 18.8205 17.6922H17.5641C17.5641 18.9093 17.9992 19.954 18.8692 20.8262C19.7393 21.6984 20.7829 22.1345 22 22.1345ZM18.8782 15.3782H25.1218C25.1218 14.5064 24.8194 13.7681 24.2147 13.1634C23.61 12.5587 22.8718 12.2564 22 12.2564C21.1282 12.2564 20.3899 12.5587 19.7852 13.1634C19.1805 13.7681 18.8782 14.5064 18.8782 15.3782Z" fill="white"/>
</svg>
